<svg width="201" height="34" fill="none" xmlns="http://www.w3.org/2000/svg"><path d="M59.066 21.304c0 5.655-2.429 8.333-7.192 8.333-5.107 0-7.393-2.678-7.393-8.333V1.586l4.267-.037v19.903c0 2.63.744 4.066 3.126 4.066 2.334 0 3.126-1.442 3.126-4.066V1.549h4.066v19.755zM74.353 13.393c-.745-4.71-.982-5.95-1.035-6.146h-.95c-.048.2-.201 1.389-.993 6.146l-.945 6.152h4.91l-.987-6.152zm-4.515 9.87-.945 6.104h-4.12l4.96-27.776h6.5l4.91 27.776h-4.266l-.94-6.104h-6.099zM92.92 15.03c2.234 0 3.723-1.536 3.723-4.662 0-3.227-1.436-4.616-3.966-4.616H91.04v9.278h1.88zm.296 3.47h-2.234v10.862h-4.166V1.586h6.495c5.111 0 7.588 3.374 7.588 8.533 0 3.972-1.537 6.348-3.918 7.293l4.018 11.955h-4.462L93.216 18.5zM107.558 1.586h12.599v4.166h-8.332v7.293h6.247v4.166h-6.247v7.985h8.533v4.166h-12.8V1.586zM130.455 29.362l-5.059-27.776h4.562l2.329 14.036c1.141 6.843 1.188 7.984 1.241 8.084h.734c0-.1.111-1.235 1.204-8.084L137.8 1.633h4.119l-4.911 27.729h-6.553zM147.706 1.586h12.599v4.166h-8.338v7.293h6.253v4.166h-6.253v7.985h8.534v4.166h-12.795V1.586zM194.678 5.414v23.61h-4.267V5.414h-5.355V1.248h14.976v4.166h-5.354zM4.596 21.8c.148 2.482 1.193 4.066 3.374 4.066 2.033 0 3.026-1.24 3.026-3.321 0-2.583-1.489-3.818-3.918-5.508-2.181-1.49-5.803-3.67-5.803-9.077 0-4.463 2.429-6.897 6.695-6.897 4.12 0 6.797 2.281 6.997 6.997l-3.723.993c-.2-2.678-1.093-3.966-3.025-3.966-1.685 0-2.826.993-2.826 3.026 0 2.53 1.637 3.57 4.515 5.507 2.878 1.886 5.26 4.315 5.26 8.882 0 5.012-2.778 7.393-7.145 7.393-3.723 0-6.896-1.785-7.24-7.044l3.813-1.05z" fill="#fff"/><path d="M.778 21.8h3.818s-1.12 1.188-1.24 1.188c-.122 0-2.525.09-2.525.09l-.058-.238V21.8h.005zM12.285 8.773l2.677-.713v.993h-3.718l1.04-.28z" fill="#fff"/><path d="M25.804 2.816h-4.267v26.51h4.267V2.815zM37.933 2.816h-4.267v22.438h4.267V2.816z" fill="#1AB8DE"/><path d="M37.928 1.55h-16.39v4.266h16.39V1.549zM37.363 25.058H21.537v4.267h15.826v-4.267z" fill="#1AB8DE"/><path d="M33.666 25.058h-4.267v4.267h4.267v4.267h4.267v-8.534h-4.267z" fill="#fff"/><path d="M37.933 29.325h4.261v-4.267h-4.261v-4.267h-4.267v8.534h4.267zM169.827 21.457c.148 2.482 1.188 4.066 3.374 4.066 2.033 0 3.026-1.24 3.026-3.322 0-2.582-1.489-3.817-3.918-5.507-2.181-1.49-5.804-3.67-5.804-9.078 0-4.462 2.43-6.896 6.696-6.896 4.119 0 6.796 2.281 6.997 6.997l-3.723.993c-.2-2.678-1.093-3.966-3.025-3.966-1.685 0-2.826.993-2.826 3.026 0 2.529 1.637 3.57 4.515 5.507 2.878 1.886 5.26 4.315 5.26 8.882 0 5.012-2.778 7.393-7.145 7.393-3.723 0-6.896-1.785-7.24-7.044l3.813-1.051z" fill="#fff"/><path d="M166.004 21.457h3.817s-1.119 1.188-1.24 1.188c-.122 0-2.525.09-2.525.09l-.058-.238v-1.04h.006zM177.515 8.435l2.678-.713v.988h-3.723l1.045-.275z" fill="#fff"/></svg>