<svg width="201" height="34" viewBox="0 0 200 33" fill="none" xmlns="http://www.w3.org/2000/svg">
<path d="M58.2926 20.5839C58.2926 26.2395 55.8635 28.9167 51.1004 28.9167C45.994 28.9167 43.7075 26.2395 43.7075 20.5839V0.866066L47.9743 0.829102V20.7318C47.9743 23.3615 48.7188 24.7979 51.1004 24.7979C53.4344 24.7979 54.2265 23.3562 54.2265 20.7318V0.829102H58.2926V20.5839Z" fill="white"/>
<path d="M73.5795 12.6734C72.835 7.96309 72.5973 6.72215 72.5445 6.52676H71.594C71.5465 6.72743 71.3934 7.91557 70.6013 12.6734L69.656 18.8253H74.567L73.5795 12.6734ZM69.0646 22.5429L68.1194 28.6473H64.0005L68.959 0.871216H75.4594L80.3704 28.6473H76.1037L75.1637 22.5429H69.0646Z" fill="white"/>
<path d="M92.1469 14.3104C94.3806 14.3104 95.8697 12.7738 95.8697 9.64764C95.8697 6.42118 94.4334 5.03238 91.904 5.03238H90.267V14.3104H92.1469ZM92.4426 17.7798H91.302H90.2089V28.642H86.0425V0.865967H92.5376C97.6493 0.865967 100.126 4.24028 100.126 9.39945C100.126 13.3705 98.5892 15.7468 96.2077 16.692L100.226 28.6473H95.7641L92.4426 17.7798Z" fill="white"/>
<path d="M106.785 0.865967H119.384V5.03238H111.051V12.3249H117.298V16.4913H111.051V24.4756H119.585V28.642H106.785V0.865967Z" fill="white"/>
<path d="M129.681 28.642L124.623 0.865967H129.185L131.514 14.9019C132.654 21.7456 132.702 22.8862 132.755 22.9865H133.489C133.489 22.8862 133.6 21.7508 134.693 14.9019L137.027 0.913492H141.146L136.235 28.642H129.681Z" fill="white"/>
<path d="M146.933 0.865967H159.532V5.03238H151.194V12.3249H157.446V16.4913H151.194V24.4756H159.728V28.642H146.933V0.865967Z" fill="white"/>
<path d="M193.904 4.69449V28.3042H189.638V4.69449H184.283V0.528076H199.259V4.69449H193.904Z" fill="white"/>
<path d="M3.82286 21.0801C3.97072 23.562 5.01628 25.1462 7.19718 25.1462C9.23022 25.1462 10.223 23.9053 10.223 21.8247C10.223 19.2425 8.73384 18.0068 6.30476 16.317C4.12386 14.8279 0.501352 12.647 0.501352 7.23963C0.501352 2.77751 2.93044 0.34314 7.19718 0.34314C11.3161 0.34314 13.9933 2.62437 14.194 7.33997L10.4712 8.33272C10.2705 5.65545 9.37808 4.36697 7.44537 4.36697C5.76085 4.36697 4.62024 5.35973 4.62024 7.39277C4.62024 9.92219 6.25723 10.9625 9.13517 12.9005C12.0131 14.7856 14.3947 17.2147 14.3947 21.7825C14.3947 26.7938 11.6171 29.1753 7.24999 29.1753C3.52715 29.1753 0.353494 27.3905 0.0102539 22.131L3.82286 21.0801Z" fill="white"/>
<path d="M0.00528074 21.0802H3.82317C3.82317 21.0802 2.70368 22.2683 2.58222 22.2683C2.46077 22.2683 0.0580872 22.3581 0.0580872 22.3581L0 22.1205V21.0802H0.00528074Z" fill="white"/>
<path d="M11.5115 8.05285L14.1888 7.33997V8.33272H10.4712L11.5115 8.05285Z" fill="white"/>
<path d="M25.0309 2.09644H20.7642V28.6052H25.0309V2.09644Z" fill="#246B7D"/>
<path d="M37.1598 2.09644H32.8931V24.5338H37.1598V2.09644Z" fill="#246B7D"/>
<path d="M37.1552 0.829102H20.7642V5.09584H37.1552V0.829102Z" fill="#246B7D"/>
<path d="M36.5902 24.3384H20.7642V28.6051H36.5902V24.3384Z" fill="#246B7D"/>
<path d="M32.8927 24.3384H28.626V28.6051H32.8927V32.8719H37.1595V28.6051V24.3384H32.8927Z" fill="white"/>
<path d="M37.1598 28.605H41.4213V24.3383H37.1598V20.0715H32.8931V24.3383V28.605H37.1598Z" fill="white"/>
<path d="M169.054 20.737C169.202 23.2189 170.242 24.8031 172.428 24.8031C174.461 24.8031 175.454 23.5621 175.454 21.4816C175.454 18.8994 173.965 17.6637 171.536 15.9739C169.355 14.4847 165.732 12.3039 165.732 6.89649C165.732 2.43437 168.161 0 172.428 0C176.547 0 179.224 2.28123 179.425 6.99683L175.702 7.98958C175.501 5.31231 174.609 4.02383 172.676 4.02383C170.992 4.02383 169.851 5.01659 169.851 7.04963C169.851 9.57905 171.488 10.6193 174.366 12.5573C177.244 14.4425 179.626 16.8716 179.626 21.4393C179.626 26.4506 176.848 28.8322 172.481 28.8322C168.758 28.8322 165.584 27.0474 165.241 21.7879L169.054 20.737Z" fill="white"/>
<path d="M165.23 20.7371H169.048C169.048 20.7371 167.929 21.9252 167.807 21.9252C167.686 21.9252 165.283 22.015 165.283 22.015L165.225 21.7773V20.7371H165.23Z" fill="white"/>
<path d="M176.742 7.71496L179.42 7.00208V7.98955H175.697L176.742 7.71496Z" fill="white"/>
</svg>
